<?xml version="1.0" encoding="utf-8"?>
<!-- Generator: Adobe Illustrator 19.2.1, SVG Export Plug-In . SVG Version: 6.00 Build 0)  -->
<svg version="1.1" id="Layer_1" xmlns="http://www.w3.org/2000/svg" xmlns:xlink="http://www.w3.org/1999/xlink" x="0px" y="0px"
	 viewBox="0 0 46 46" style="enable-background:new 0 0 46 46;" xml:space="preserve">
<style type="text/css">
	.st0{fill:#0066AC;}
</style>
<g id="New_Symbol_2">
	<g>
		<path class="st0" d="M23,46C10.3,46,0,35.7,0,23C0,10.3,10.3,0,23,0c12.7,0,23,10.3,23,23C46,35.7,35.7,46,23,46z M23,1
			C10.9,1,1,10.9,1,23s9.9,22,22,22s22-9.9,22-22S35.1,1,23,1z"/>
	</g>
	<g>
		<polygon class="st0" points="23,32.5 11.3,20.8 12.7,19.4 23,29.7 33.3,19.4 34.7,20.8 		"/>
	</g>
</g>
</svg>
