<?xml version="1.0" encoding="iso-8859-1"?>
<!-- Generator: Adobe Illustrator 19.2.0, SVG Export Plug-In . SVG Version: 6.00 Build 0)  -->
<svg version="1.1" id="Layer_1" xmlns="http://www.w3.org/2000/svg" xmlns:xlink="http://www.w3.org/1999/xlink" x="0px" y="0px"
	 viewBox="0 0 420 30" style="enable-background:new 0 0 420 30;" xml:space="preserve">
<g>
	<rect style="fill:none;" width="30" height="30"/>
	<rect x="30" style="fill:none;" width="30" height="30"/>
	<rect x="60" style="fill:none;" width="30" height="30"/>
	<rect x="90" style="fill:none;" width="30" height="30"/>
	<rect x="120" style="fill:none;" width="30" height="30"/>
	<rect x="150" style="fill:none;" width="30" height="30"/>
	<rect x="180" style="fill:none;" width="30" height="30"/>
	<rect x="210" style="fill:none;" width="30" height="30"/>
	<rect x="240" style="fill:none;" width="30" height="30"/>
	<rect x="270" style="fill:none;" width="30" height="30"/>
	<rect x="300" style="fill:none;" width="30" height="30"/>
	<rect x="330" style="fill:none;" width="30" height="30"/>
	<rect x="360" style="fill:none;" width="30" height="30"/>
	<rect x="390" style="fill:none;" width="30" height="30"/>
	<g>
		<path style="fill:none;stroke:#bdc3c7;stroke-linecap:round;stroke-linejoin:round;stroke-miterlimit:10;" d="M84.047,26H65.953
			c-1.03,0-1.865-0.835-1.865-1.865V13.188c0-0.549,0.242-1.07,0.66-1.424l8.346-7.06c1.111-0.94,2.738-0.938,3.848,0.003
			l8.313,7.057c0.417,0.354,0.658,0.874,0.658,1.422v10.949C85.912,25.165,85.077,26,84.047,26z"/>
		<polyline style="fill:none;stroke:#bdc3c7;stroke-linecap:round;stroke-linejoin:round;stroke-miterlimit:10;" points="66,14.322 
			74.928,19.282 83.857,14.322 		"/>
		<polyline style="fill:none;stroke:#bdc3c7;stroke-linecap:round;stroke-linejoin:round;stroke-miterlimit:10;" points="
			80.522,15.975 80.522,10.934 69.478,10.934 69.478,15.975 		"/>
		
			<line style="fill:none;stroke:#bdc3c7;stroke-linecap:round;stroke-linejoin:round;stroke-miterlimit:10;" x1="71.901" y1="13.455" x2="78.099" y2="13.455"/>
		
			<line style="fill:none;stroke:#bdc3c7;stroke-linecap:round;stroke-linejoin:round;stroke-miterlimit:10;" x1="71.901" y1="15.276" x2="78.099" y2="15.276"/>
	</g>
	<g>
		<path style="fill:none;stroke:#bdc3c7;stroke-linecap:round;stroke-linejoin:round;stroke-miterlimit:10;" d="M98.016,22.744
			h-1.922c-1.105,0-2-0.895-2-2v-5.781c0-1.105,0.895-2,2-2h17.812c1.105,0,2,0.895,2,2v5.781c0,1.105-0.895,2-2,2h-1.859"/>
		
			<rect x="98.123" y="18.869" style="fill:none;stroke:#bdc3c7;stroke-linecap:round;stroke-linejoin:round;stroke-miterlimit:10;" width="13.755" height="6.812"/>
		<path style="fill:none;stroke:#bdc3c7;stroke-linecap:round;stroke-linejoin:round;stroke-miterlimit:10;" d="M111.877,12.963
			H98.123V4.319h8.755c1.953,1.953,3.047,3.047,5,5V12.963z"/>
		<polygon style="fill:none;stroke:#bdc3c7;stroke-linecap:round;stroke-linejoin:round;stroke-miterlimit:10;" points="
			111.877,9.319 106.877,9.319 106.877,4.319 		"/>
	</g>
	<polygon style="fill:none;stroke:#bdc3c7;stroke-linecap:round;stroke-linejoin:round;stroke-miterlimit:10;" points="
		292.841,6.484 282.267,15.265 278.339,10.996 274,15.338 282.178,23.516 296,9.698 	"/>
	<g>
		<path style="fill:none;stroke:#bdc3c7;stroke-linecap:round;stroke-linejoin:round;stroke-miterlimit:10;" d="M315,25.496
			L315,25.496c-3.391,0-6.141-2.749-6.141-6.141v-8.71c0-3.391,2.749-6.141,6.141-6.141l0,0c3.391,0,6.141,2.749,6.141,6.141v8.71
			C321.141,22.747,318.391,25.496,315,25.496z"/>
		
			<line style="fill:none;stroke:#bdc3c7;stroke-linecap:round;stroke-linejoin:round;stroke-miterlimit:10;" x1="315" y1="7.594" x2="315" y2="11.812"/>
		<path style="fill:none;stroke:#bdc3c7;stroke-linecap:round;stroke-linejoin:round;stroke-miterlimit:10;" d="M308.953,12.79
			c1.861,1.03,3.968,1.627,6.047,1.627s4.186-0.596,6.047-1.627"/>
	</g>
	<path style="fill:none;stroke:#bdc3c7;stroke-miterlimit:10;" d="M243.678,15.859c2.079,0.9,3.77,1.621,5.874,2.533
		c0.145,0.063,0.292,0.081,0.439-0.047c5.035-4.71,9.956-9.329,14.991-14.039c0.66-0.595,1.931-0.23,1.523,0.321
		c-8.92,10.286-13.609,16.305-16.45,21.057c-0.258,0.434-0.749,0.41-1.015-0.007c-0.626-0.995-1.572-2.556-1.598-2.595
		c-2.015-3.518-2.079-3.664-4.003-7.024C243.348,15.894,243.545,15.774,243.678,15.859z"/>
	<g>
		
			<circle style="fill:none;stroke:#bdc3c7;stroke-linecap:round;stroke-linejoin:round;stroke-miterlimit:10;" cx="195" cy="15" r="11.163"/>
		
			<line style="fill:none;stroke:#bdc3c7;stroke-linecap:round;stroke-linejoin:round;stroke-miterlimit:10;" x1="195" y1="8.721" x2="195" y2="21.279"/>
		<polyline style="fill:none;stroke:#bdc3c7;stroke-linecap:round;stroke-linejoin:round;stroke-miterlimit:10;" points="
			200.581,15.726 195,21.307 189.419,15.726 		"/>
	</g>
	<g>
		
			<circle style="fill:none;stroke:#bdc3c7;stroke-linecap:round;stroke-linejoin:round;stroke-miterlimit:10;" cx="225" cy="15" r="11.163"/>
		<path style="fill:none;stroke:#bdc3c7;stroke-miterlimit:10;" d="M229.667,14.665l-2.874,3.021V8.721c0-0.828-0.672-1.5-1.5-1.5
			s-1.5,0.672-1.5,1.5v8.965l-3.167-3.021c-0.586-0.586-1.608-0.586-2.194,0s-0.623,1.535-0.037,2.121l5.563,5.581
			c0.05,0.05,0.106,0.071,0.161,0.113c0.039,0.029,0.075,0.055,0.116,0.08c0.146,0.089,0.294,0.151,0.457,0.186
			c0.006,0.001,0.011,0.002,0.018,0.004c0.098,0.02,0.192,0.057,0.291,0.057s0.194-0.037,0.292-0.057
			c0.006-0.001,0.012-0.002,0.019-0.004c0.163-0.035,0.313-0.096,0.459-0.186c0.042-0.025,0.082-0.052,0.121-0.081
			c0.055-0.042,0.12-0.063,0.17-0.113l5.581-5.581c0.586-0.586,0.659-1.535,0.073-2.121S230.253,14.079,229.667,14.665z"/>
	</g>
	<path style="fill:none;stroke:#bdc3c7;stroke-miterlimit:10;" d="M128.236,12.22c0.049,0.651,0.591,3.563,3.336,6.286
		c2.723,2.745,5.69,3.342,6.341,3.391c2.002,0.212,3.337-0.896,3.843-2.623c0.135-0.461-0.089-0.956-0.518-1.171l-2.218-1.115
		c-0.385-0.194-0.851-0.119-1.156,0.186l-1.328,1.328c0,0-1.113-0.083-3.249-2.219c-2.187-2.187-2.219-3.249-2.219-3.249
		l1.347-1.347c0.296-0.296,0.376-0.745,0.201-1.125l-0.871-1.892c-0.212-0.461-0.744-0.709-1.222-0.538
		C128.896,8.712,128.027,10.245,128.236,12.22z"/>
	<g>
		<path style="fill:none;stroke:#bdc3c7;stroke-miterlimit:10;" d="M45,4c-6.076,0-11,4.924-11,11c0,6.075,4.924,11,11,11
			c6.075,0,11-4.925,11-11C56,8.924,51.075,4,45,4"/>
		<path style="fill:none;stroke:#bdc3c7;stroke-miterlimit:10;" d="M38.236,12.22c0.049,0.651,0.591,3.563,3.336,6.286
			c2.723,2.745,5.69,3.342,6.341,3.391c2.002,0.212,3.337-0.896,3.843-2.623c0.135-0.461-0.089-0.956-0.518-1.171l-2.218-1.115
			c-0.385-0.194-0.851-0.119-1.156,0.186l-1.328,1.328c0,0-1.113-0.083-3.249-2.219c-2.187-2.187-2.219-3.249-2.219-3.249
			l1.347-1.347c0.296-0.296,0.376-0.745,0.201-1.125L41.745,8.67c-0.212-0.461-0.744-0.709-1.222-0.538
			C38.896,8.712,38.027,10.245,38.236,12.22z"/>
	</g>
	<g>
		<path style="fill:none;stroke:#bdc3c7;stroke-miterlimit:10;" d="M169.56,14.583h-10.053c-0.749,0-1.444,0.39-1.835,1.029
			l-3.514,5.748C154.055,21.528,154,21.722,154,21.92v2.43c0,1.188,0.963,2.151,2.151,2.151h17.699c1.188,0,2.151-0.963,2.151-2.151
			v-2.369c0-0.236-0.078-0.465-0.221-0.653l-4.51-5.901C170.862,14.895,170.23,14.583,169.56,14.583z"/>
		<path style="fill:none;stroke:#bdc3c7;stroke-miterlimit:10;" d="M163.898,14.751v-2.667c0-0.725-0.588-1.312-1.312-1.312l0,0
			c-0.725,0-1.312,0.588-1.312,1.312v2.667"/>
		<path style="fill:none;stroke:#bdc3c7;stroke-miterlimit:10;" d="M168.727,14.751v-2.667c0-0.725-0.588-1.312-1.312-1.312l0,0
			c-0.725,0-1.312,0.588-1.312,1.312v2.667"/>
		<circle style="fill:none;stroke:#bdc3c7;stroke-miterlimit:10;" cx="165" cy="20.584" r="3.5"/>
		<path style="fill:none;stroke:#bdc3c7;stroke-miterlimit:10;" d="M174.282,6.285c-1.505-1.244-5.396-2.786-9.287-2.786
			c-3.891,0-7.782,1.543-9.287,2.786c-2.333,1.887-1.937,4.591-0.202,6.857l4.287-1.592V8.789c0-0.385,0.239-0.748,0.602-0.878
			c0.743-0.266,1.905-0.695,4.667-0.695c2.762,0,4.113,0.429,4.855,0.695c0.363,0.13,0.876,0.492,0.876,0.878v2.761l3.989,1.592
			C176.517,10.876,176.616,8.171,174.282,6.285z"/>
	</g>
	<g>
		<path style="fill:none;stroke:#bdc3c7;stroke-miterlimit:10;" d="M352.076,11.076C352.076,14.984,346.67,26,345,26
			s-7.076-11.016-7.076-14.924S341.092,4,345,4S352.076,7.168,352.076,11.076z"/>
		<circle style="fill:none;stroke:#bdc3c7;stroke-miterlimit:10;" cx="345" cy="11.076" r="4.008"/>
	</g>
	<g>
		<g>
			<path style="fill:none;stroke:#bdc3c7;stroke-linecap:round;stroke-linejoin:round;stroke-miterlimit:10;" d="M365.493,21.889
				L365.493,21.889c-0.578-0.334-0.776-1.073-0.442-1.651l8.579-14.859l2.093,1.208l-8.579,14.859
				C366.81,22.024,366.071,22.222,365.493,21.889z"/>
			
				<line style="fill:none;stroke:#bdc3c7;stroke-linecap:round;stroke-linejoin:round;stroke-miterlimit:10;" x1="365.493" y1="21.889" x2="364.79" y2="23.106"/>
			
				<line style="fill:none;stroke:#bdc3c7;stroke-linecap:round;stroke-linejoin:round;stroke-miterlimit:10;" x1="367.63" y1="15.771" x2="369.723" y2="16.98"/>
			<polyline style="fill:none;stroke:#bdc3c7;stroke-linecap:round;stroke-linejoin:round;stroke-miterlimit:10;" points="
				372.613,7.14 376.366,9.306 374.007,13.391 			"/>
		</g>
		
			<line style="fill:none;stroke:#bdc3c7;stroke-linecap:round;stroke-linejoin:round;stroke-miterlimit:10;" x1="364" y1="24.621" x2="386" y2="24.621"/>
	</g>
	<g>
		<path style="fill:none;stroke:#bdc3c7;stroke-miterlimit:10;" d="M23.118,22.193l-3.607-2.479
			c-0.324-0.224-0.749-0.229-1.086-0.025l-3.133,1.897l-3.133-1.89c-0.337-0.204-0.762-0.189-1.086,0.035l-3.607,2.462
			c-1.206,0.835-1.926,2.641-1.926,3.641h9.751h9.751C25.044,24.833,24.324,23.027,23.118,22.193z"/>
		<path style="fill:none;stroke:#bdc3c7;stroke-linecap:round;stroke-linejoin:round;stroke-miterlimit:10;" d="M17.499,19.935
			c0,0-0.584-0.731-0.647-2.772c1.479-1.438,1.896-2.896,1.896-2.896s1.083,0.188,1.38-1.67c0.246-1.535-0.818-1.58-0.818-1.58
			s0.139-3.221-1.604-4.312c-1.666-1.854-3.005-1.505-4.12-2.45c-0.503,0.792-0.574,1.521-0.574,1.521l-1.103,0.482
			c-0.197,0.086-0.389,0.193-0.542,0.344c-1.489,1.463-1.203,4.416-1.203,4.416s-1.063,0.045-0.818,1.58
			c0.297,1.857,1.38,1.67,1.38,1.67s0.417,1.458,1.896,2.896c-0.062,2.042-0.647,2.772-0.647,2.772"/>
	</g>
	<g>
		
			<circle style="fill:none;stroke:#bdc3c7;stroke-linecap:round;stroke-linejoin:round;stroke-miterlimit:10;" cx="405" cy="15" r="11"/>
		<g>
			<polyline style="fill:none;stroke:#bdc3c7;stroke-linecap:round;stroke-linejoin:round;" points="405,8.486 405,15 408.222,15 
							"/>
			<g>
				<polygon style="fill:#bdc3c7;" points="403.504,8.924 405,6.333 406.496,8.924 				"/>
			</g>
			<g>
				<polygon style="fill:#bdc3c7;" points="407.785,16.496 410.375,15 407.785,13.504 				"/>
			</g>
		</g>
	</g>
</g>
</svg>
