<?xml version="1.0" encoding="utf-8"?>
<!-- Generator: Adobe Illustrator 17.1.0, SVG Export Plug-In . SVG Version: 6.00 Build 0)  -->
<!DOCTYPE svg PUBLIC "-//W3C//DTD SVG 1.1//EN" "http://www.w3.org/Graphics/SVG/1.1/DTD/svg11.dtd">
<svg version="1.1" id="Layer_1" xmlns="http://www.w3.org/2000/svg" xmlns:xlink="http://www.w3.org/1999/xlink" x="0px" y="0px"
	 viewBox="0 0 700 100" enable-background="new 0 0 700 100" xml:space="preserve">
<g>
	<path fill="#FFFFFF" d="M322.4,97c0,0.7-0.6,1.3-1.3,1.3h-19.8c-0.7-0.1-1.3-0.6-1.3-1.3V32.4c0-0.7,0.6-1.3,1.3-1.3h19.8
		c0.7,0,1.3,0.6,1.3,1.3C322.4,32.4,322.4,97,322.4,97z"/>
	<path fill="#FFFFFF" d="M311.2,24.1c-6.2,0-11.2-5-11.2-11.2s5-11.1,11.2-11.1c6.2,0,11.2,5,11.2,11.2S317.4,24.1,311.2,24.1z"/>
	<path fill="#FFFFFF" d="M400,51.5V97c0,0.7-0.6,1.3-1.3,1.3h-19.8c-0.7,0-1.3-0.6-1.3-1.3V60.5c0-7-0.6-12.8-10.2-12.8
		c-6.9,0-10.5,5.7-10.5,9.8V97c0,0.7-0.6,1.3-1.3,1.3h-19.8c-0.7,0-1.3-0.6-1.3-1.3V32.4c0-0.7,0.6-1.3,1.3-1.3h19.8
		c0.7,0,1.3,0.6,1.3,1.3v6.2c3.5-3.8,10.2-8.5,19.8-8.5c16,0,21.8,11.5,23.3,16.9C399.9,47.1,400,47.1,400,51.5z"/>
</g>
</svg>
