<?xml version="1.0" encoding="utf-8"?>
<!-- Generator: Adobe Illustrator 19.2.1, SVG Export Plug-In . SVG Version: 6.00 Build 0)  -->
<svg version="1.1" id="Layer_1" xmlns="http://www.w3.org/2000/svg" xmlns:xlink="http://www.w3.org/1999/xlink" x="0px" y="0px"
	 viewBox="0 0 24.7 32.9" style="enable-background:new 0 0 24.7 32.9;" xml:space="preserve">
<style type="text/css">
	.st0{fill-rule:evenodd;clip-rule:evenodd;fill:#E2312C;}
</style>
<g>
	<g>
		<path class="st0" d="M12.3,0C5.5,0,0,4.8,0,12c0,7.2,6.1,10,9.5,14.5c2.8,3.7,2.8,6.4,2.8,6.4s0.1-2.7,2.8-6.4
			C18.4,22,24.7,19,24.7,12C24.7,4.8,19.1,0,12.3,0z M12.3,19.3c-4.2,0-7.6-3.3-7.6-7.3c0-4.1,3.4-7.3,7.6-7.3
			c4.2,0,7.6,3.3,7.6,7.3C19.9,16,16.5,19.3,12.3,19.3z"/>
	</g>
</g>
</svg>
