<?xml version="1.0" encoding="utf-8"?>
<!-- Generator: Adobe Illustrator 19.2.1, SVG Export Plug-In . SVG Version: 6.00 Build 0)  -->
<svg version="1.1" id="Layer_1" xmlns="http://www.w3.org/2000/svg" xmlns:xlink="http://www.w3.org/1999/xlink" x="0px" y="0px"
	 viewBox="0 0 199.2 80" style="enable-background:new 0 0 199.2 80;" xml:space="preserve">
<style type="text/css">
	.st0{fill:#E0302B;}
	.st1{fill:#454547;}
	.st2{fill:#14529D;}
	.st3{fill:#FDD35A;}
</style>
<g id="New_Symbol">
	<path class="st0" d="M83.7,16.5H72.8V6.4h36.1v10.1H97.7v41.4h-14V16.5z"/>
	<path class="st0" d="M156.6,55.6c-3.6,1.2-10.5,2.9-17.4,2.9c-9.5,0-14.7-2.4-19.4-7.2c-4.7-4.9-6.7-11.3-6.7-19
		c0.1-17.3,10.2-26.9,27.3-26.9c6.7,0,11.9,1.3,14.4,2.5l-0.7,10.4c-3.3-2.3-7.9-3.7-13.9-3.2c-5.4,0.5-13.3,5.7-13.3,16.9
		c0,10.7,5.6,16.5,12.4,17c2.7,0.2,3.6-0.3,4.3-0.8V37.4h-7.4v-9.2h20.3V55.6z"/>
	<path class="st0" d="M186.2,27.2c-6.4-2.2-7.8-4.1-7.8-7.4c0-2.7,2.7-4.5,5.7-4.9c4-0.5,7.7,0.4,11,2.4L195.7,7
		c-2.9-1-6.7-1.8-11.4-1.8c-12.5,0-20,6.8-20,15.7c0,7.6,4.6,12.2,13.1,15.8c4.9,2.1,7.5,3.6,7.4,7c0,2.7-2.3,4.9-6.2,5.2
		c-4.5,0.3-9.4-1.2-12.6-2.8l-0.7,10.5c3.3,1.3,8.2,2.4,13.2,2.4c14.5,0,20.6-7.5,20.6-16.3C199.2,35.3,196.2,30.6,186.2,27.2z"/>
	<g>
		<g>
			<path class="st1" d="M21.4,64.9h-2.7v-1.3h7.2v1.3h-2.7v11.2h-1.7V64.9z"/>
			<path class="st1" d="M27.8,69.4c0-0.8-0.1-1.6-0.1-2.3h1.5l0.1,1.4h0c0.4-0.9,1.3-1.6,2.3-1.6c0.1,0,0.2,0,0.4,0v1.5
				c-0.1,0-0.2,0-0.4,0c-1.1,0-1.9,0.8-2.1,1.9c0,0.2-0.1,0.5-0.1,0.8v5h-1.7V69.4z"/>
			<path class="st1" d="M40.5,74c0,0.7,0,1.5,0.1,2h-1.6L39,75.1h-0.1c-0.5,0.7-1.2,1.1-2.1,1.1c-1.4,0-2.5-1-2.5-2.6
				c0-2.2,2.1-3.2,4.6-3.3v-0.3c0-1.2-0.4-2-1.7-2c-0.7,0-1.3,0.2-1.8,0.5l-0.4-1c0.4-0.3,1.4-0.6,2.5-0.6c2.1,0,3.1,1.2,3.1,3.2V74
				z M38.8,71.4c-0.9,0-2.9,0.1-2.9,2.1c0,1.2,0.7,1.6,1.3,1.6c0.8,0,1.4-0.5,1.6-1.3c0-0.2,0-0.4,0-0.5V71.4z"/>
			<path class="st1" d="M45.2,67.1l1.4,5c0.2,0.6,0.3,1.4,0.5,2.2h0.1c0.1-0.7,0.3-1.5,0.4-2.2l1.3-5h1.7l-2.8,8.9h-1.5l-2.8-8.9
				H45.2z"/>
			<path class="st1" d="M54.6,71.7c0,2.7,1.3,3.3,2.5,3.3c0.7,0,1.4-0.1,1.8-0.4l0.3,1.1c-0.6,0.3-1.5,0.4-2.3,0.4
				c-2.6,0-3.9-1.8-3.9-4.5c0-2.9,1.5-4.7,3.6-4.7c2.2,0,3.1,1.9,3.1,4c0,0.3,0,0.6,0,0.8H54.6z M58,70.7c0-1.8-0.8-2.6-1.6-2.6
				c-1.1,0-1.7,1.4-1.7,2.6H58z"/>
			<path class="st1" d="M63.1,62.8h1.7v13.3h-1.7V62.8z"/>
		</g>
		<g>
			<path class="st1" d="M82,75.7c-0.6,0.2-1.7,0.4-2.7,0.4c-1.3,0-2.5-0.3-3.5-1.2c-1.1-1-1.8-2.7-1.8-5c0-4.8,3-6.5,5.6-6.5
				c0.9,0,1.7,0.1,2.1,0.4l-0.4,1.2c-0.4-0.2-0.9-0.3-1.7-0.3c-1.9,0-3.9,1.2-3.9,5.1c0,3.8,1.7,5.1,3.5,5.1c0.6,0,0.9-0.1,1-0.1
				v-4.1h-1.9v-1.2H82V75.7z"/>
			<path class="st1" d="M85.9,62.8h1.7v13.3h-1.7V62.8z"/>
			<path class="st1" d="M98.3,71.6c0,3.5-1.9,4.6-3.6,4.6c-1.9,0-3.5-1.5-3.5-4.6c0-3.3,1.7-4.6,3.6-4.6
				C96.8,67,98.3,68.5,98.3,71.6z M93,71.6c0,1.5,0.3,3.5,1.9,3.5c1.5,0,1.7-2.1,1.7-3.5c0-1.4-0.3-3.5-1.8-3.5
				C93.3,68.1,93,70.2,93,71.6z"/>
			<path class="st1" d="M101.9,62.8h1.7v5.4h0c0.6-0.9,1.4-1.2,2.3-1.2c1.7,0,2.9,1.6,2.9,4.5c0,3.2-1.6,4.7-3.3,4.7
				c-1.1,0-1.7-0.6-2.1-1.3h-0.1l-0.1,1.2h-1.5c0-0.5,0.1-1.5,0.1-2.1V62.8z M103.6,72.9c0,0.2,0,0.4,0.1,0.6
				c0.4,1.3,1.1,1.6,1.6,1.6c1.4,0,1.9-1.6,1.9-3.5c0-1.8-0.5-3.4-1.9-3.4c-0.8,0-1.5,0.8-1.6,1.6c0,0.2,0,0.4,0,0.6V72.9z"/>
			<path class="st1" d="M118.1,74c0,0.7,0,1.5,0.1,2h-1.6l-0.1-0.9h-0.1c-0.5,0.7-1.2,1.1-2.1,1.1c-1.4,0-2.5-1-2.5-2.6
				c0-2.2,2.1-3.2,4.6-3.3v-0.3c0-1.2-0.4-2-1.7-2c-0.7,0-1.3,0.2-1.8,0.5l-0.4-1c0.4-0.3,1.4-0.6,2.5-0.6c2.1,0,3.1,1.2,3.1,3.2V74
				z M116.4,71.4c-0.9,0-2.9,0.1-2.9,2.1c0,1.2,0.7,1.6,1.3,1.6c0.8,0,1.4-0.5,1.6-1.3c0-0.2,0-0.4,0-0.5V71.4z"/>
			<path class="st1" d="M122.1,62.8h1.7v13.3h-1.7V62.8z"/>
		</g>
		<g>
			<path class="st1" d="M132.4,74.4c0.5,0.3,1.4,0.5,2.1,0.5c1.5,0,2.5-0.9,2.5-2.1c0-1.1-0.8-1.8-2-2.6c-1.2-0.7-2.8-1.8-2.8-3.5
				c0-1.9,1.6-3.3,3.9-3.3c0.9,0,1.7,0.2,2.1,0.5l-0.4,1.2c-0.4-0.2-1-0.4-1.8-0.4c-1.5,0-2.1,0.9-2.1,1.8c0,1.2,0.8,1.7,2.2,2.6
				c1.8,1.1,2.6,2.2,2.6,3.6c0,2.1-1.8,3.5-4.2,3.5c-1,0-2.1-0.3-2.5-0.5L132.4,74.4z"/>
			<path class="st1" d="M142.9,67.1l1.4,5.1c0.2,0.7,0.3,1.3,0.4,1.8h0c0.1-0.5,0.3-1.2,0.5-1.8l1.3-5.2h1.7l-1.7,5.7
				c-0.7,2.3-1.4,4.4-2.7,5.8c-0.8,0.8-1.5,1.2-1.9,1.4l-0.6-1.2c0.5-0.2,1-0.6,1.5-1.1c0.4-0.5,0.8-1.1,1-1.5
				c0.1-0.2,0.1-0.3,0.1-0.4c0-0.1,0-0.2,0-0.3l-2.7-8.3H142.9z"/>
			<path class="st1" d="M151,74.6c0.4,0.2,1,0.5,1.7,0.5c1,0,1.6-0.5,1.6-1.3c0-0.7-0.3-1.1-1.4-1.8c-1.4-0.8-2.1-1.5-2.1-2.6
				c0-1.4,1.3-2.5,2.9-2.5c0.8,0,1.5,0.2,1.9,0.5l-0.5,1.1c-0.4-0.2-0.9-0.4-1.4-0.4c-0.9,0-1.4,0.6-1.4,1.1c0,0.6,0.3,0.9,1.3,1.6
				c1.2,0.7,2.2,1.5,2.2,2.7c0,1.8-1.5,2.7-3.2,2.7c-0.8,0-1.7-0.2-2.1-0.5L151,74.6z"/>
			<path class="st1" d="M161.4,65v2.1h2.1v1.1h-2.1v5.3c0,1.2,0.5,1.5,1.1,1.5c0.3,0,0.5,0,0.7-0.1l0.1,1.1
				c-0.3,0.1-0.7,0.1-1.3,0.1c-0.7,0-1.3-0.1-1.7-0.5c-0.4-0.4-0.6-1-0.6-2.3v-5.2h-1.3v-1.1h1.3v-1.5L161.4,65z"/>
			<path class="st1" d="M167.7,71.7c0,2.7,1.3,3.3,2.5,3.3c0.7,0,1.4-0.1,1.8-0.4l0.3,1.1c-0.6,0.3-1.5,0.4-2.3,0.4
				c-2.6,0-3.9-1.8-3.9-4.5c0-2.9,1.5-4.7,3.6-4.7c2.2,0,3.1,1.9,3.1,4c0,0.3,0,0.6,0,0.8H167.7z M171.1,70.7c0-1.8-0.8-2.6-1.6-2.6
				c-1.1,0-1.7,1.4-1.7,2.6H171.1z"/>
			<path class="st1" d="M176.2,69.4c0-1.1-0.1-1.6-0.1-2.3h1.5l0.1,1.1h0c0.5-0.7,1.3-1.3,2.4-1.3c1,0,1.8,0.4,2.2,1.4h0
				c0.3-0.4,0.7-0.8,1.1-1c0.4-0.2,0.9-0.4,1.5-0.4c1.4,0,2.6,0.9,2.6,3.2v5.9h-1.7v-5.6c0-1.2-0.2-2.3-1.5-2.3
				c-0.7,0-1.3,0.5-1.6,1.3c0,0.2-0.1,0.5-0.1,0.8v5.7H181v-5.9c0-1-0.2-2-1.5-2c-0.7,0-1.4,0.5-1.6,1.4c0,0.2-0.1,0.5-0.1,0.8v5.7
				h-1.7V69.4z"/>
			<path class="st1" d="M191.3,74.6c0.4,0.2,1,0.5,1.7,0.5c1,0,1.6-0.5,1.6-1.3c0-0.7-0.3-1.1-1.4-1.8c-1.4-0.8-2.1-1.5-2.1-2.6
				c0-1.4,1.3-2.5,2.9-2.5c0.8,0,1.5,0.2,1.9,0.5l-0.5,1.1c-0.4-0.2-0.9-0.4-1.4-0.4c-0.9,0-1.4,0.6-1.4,1.1c0,0.6,0.3,0.9,1.3,1.6
				c1.2,0.7,2.2,1.5,2.2,2.7c0,1.8-1.5,2.7-3.2,2.7c-0.8,0-1.7-0.2-2.1-0.5L191.3,74.6z"/>
		</g>
	</g>
	<path class="st2" d="M58.1,0c0,0,3.8,39.6-40,49c0,0,21.8,6.4,36.3-8.8C68.8,25.1,61.7,7.1,58.1,0z"/>
	<path class="st3" d="M6.2,79.9c0,0-3.8-37.7,40.7-50.6c0,0-23.4-6.3-38.6,8.8C-6.8,53.3,2.5,72.7,6.2,79.9z"/>
</g>
</svg>
