<svg style="position: absolute; width: 0; height: 0;" width="0" height="0" version="1.1" xmlns="http://www.w3.org/2000/svg" xmlns:xlink="http://www.w3.org/1999/xlink">
<defs>
<symbol id="location" viewBox="0 0 21 32">
<path class="path1" d="M10.523 32c-0.677 0-2.585-0.862-6.4-8.738-1.969-4.123-4.123-9.662-4.123-12.738 0-5.785 4.738-10.523 10.523-10.523s10.523 4.738 10.523 10.523c0 3.077-2.154 8.615-4.123 12.738-3.815 7.877-5.785 8.738-6.4 8.738zM10.523 1.231c-5.108 0-9.292 4.185-9.292 9.292 0 5.6 7.508 20.062 9.292 20.246 1.723-0.185 9.292-14.646 9.292-20.246 0-5.108-4.185-9.292-9.292-9.292zM10.523 16.738c-3.446 0-6.215-2.769-6.215-6.215s2.769-6.215 6.215-6.215 6.215 2.769 6.215 6.215-2.769 6.215-6.215 6.215zM10.523 5.538c-2.769 0-4.985 2.215-4.985 4.985s2.215 4.985 4.985 4.985 4.985-2.215 4.985-4.985-2.215-4.985-4.985-4.985z"></path>
</symbol>
<symbol id="phone" viewBox="0 0 32 32">
<path class="path1" d="M16 32c-8.8 0-16-7.2-16-16s7.2-16 16-16 16 7.2 16 16-7.2 16-16 16zM16 1.231c-8.123 0-14.769 6.646-14.769 14.769s6.646 14.769 14.769 14.769 14.769-6.646 14.769-14.769-6.646-14.769-14.769-14.769zM20.738 26.277c-0.246 0-0.492 0-0.738-0.062 0 0-4.738-0.431-9.231-4.923-4.431-4.431-4.8-8.985-4.862-9.169-0.308-3.015 1.046-5.415 3.631-6.338 0.923-0.369 2.031 0.123 2.462 1.046l1.231 2.646c0.369 0.738 0.185 1.662-0.431 2.277l-1.662 1.662c0.185 0.492 0.738 1.785 2.892 3.938 2.092 2.092 3.385 2.708 3.938 2.831l1.6-1.6c0.615-0.615 1.538-0.738 2.338-0.369l3.077 1.538c0.862 0.431 1.292 1.415 1.046 2.338v0c-0.738 2.708-2.708 4.185-5.292 4.185zM10.154 6.954c-0.062 0-0.123 0-0.246 0.062-2.031 0.738-3.077 2.585-2.769 5.046 0 0.062 0.369 4.308 4.492 8.431s8.431 4.554 8.492 4.554c2.338 0.246 4.062-0.923 4.738-3.2v0c0.123-0.369-0.062-0.738-0.431-0.923l-3.077-1.538c-0.308-0.123-0.677-0.123-0.923 0.123l-2.031 2.031h-0.308c-0.185 0-1.846-0.246-4.923-3.262-3.138-3.138-3.262-4.8-3.262-4.985v-0.246l2.092-2.092c0.246-0.246 0.308-0.554 0.185-0.862l-1.231-2.646c-0.185-0.308-0.492-0.492-0.8-0.492z"></path>
</symbol>
<symbol id="booking" viewBox="0 0 34 32">
<path class="path1" d="M33.856 30.912v-13.632c0-0.576-0.512-1.088-1.088-1.088h-0.128l-0.832 0.384-1.792-7.552c-0.128-0.576-0.704-0.896-1.28-0.768l-0.384 0.064-3.136-7.68c-0.192-0.512-0.832-0.768-1.408-0.576l-23.168 9.536c-0.512 0.192-0.768 0.832-0.576 1.408l2.24 5.504-0.64-0.32h-0.064c-0.576 0-1.088 0.512-1.088 1.088v13.632c0 0.576 0.512 1.088 1.088 1.088h31.232c0.576 0 1.024-0.512 1.024-1.088zM1.6 17.408l1.408 0.64 0.768 0.32 0.576 0.256 0.128 0.064 0.512 0.192 0.64 0.32 1.792 0.832 8.448 3.84 0.64 0.256c-0.128 0.064-0.256 0.064-0.32 0.128l-0.448 0.192-3.008 1.28-11.136 4.864v-13.184zM28.992 9.792l0.512 2.048 1.28 5.248-13.44 6.144-4.288-1.92 9.664-2.304c0.192-0.064 0.32-0.256 0.256-0.448s-0.256-0.32-0.448-0.256l-10.56 2.56-1.728-0.768-0.512-0.256 2.752-0.64 9.664-2.304c0.192-0.064 0.32-0.256 0.256-0.448s-0.256-0.32-0.448-0.256l-5.248 1.28-3.584 0.832-3.52 0.832-0.768 0.192c-0.064 0-0.064 0-0.128 0.064l-3.392-1.536-0.64-2.624 24.256-5.824 0.064 0.384zM32.768 17.408v13.12l-14.080-6.144-0.192-0.064c-0.128-0.064-0.256-0.064-0.32-0.128l1.024-0.448 2.688-1.216 9.216-4.224 1.024-0.512 0.64-0.384zM11.072 12.48l7.36-3.008c0.192-0.064 0.256-0.256 0.192-0.448s-0.256-0.256-0.448-0.192l-11.648 4.736-2.24 0.512c-0.576 0.128-0.896 0.704-0.768 1.28l0.448 1.856-0.128-0.064-2.688-6.528 23.040-9.472 3.072 7.424-16.192 3.904zM16.512 24.896c0.064-0.064 0.128-0.064 0.192-0.064 0.192-0.064 0.384-0.128 0.64-0.128s0.576 0.064 0.832 0.192l13.632 5.952-29.056 0.064 13.76-6.016z"></path>
<path class="path2" d="M23.936 6.144v0l0.128-0.256c0.064-0.128 0-0.32-0.128-0.32-0.128-0.064-0.32 0-0.32 0.128l-0.128 0.064c-0.128-0.128-0.256-0.192-0.448-0.32l0.448-1.152c0.128-0.32 0.32-0.96 0-1.152-0.32-0.128-0.704 0.448-0.832 0.768l-0.448 1.216c-0.192-0.064-0.32-0.064-0.512-0.064l0.064-0.128c0.064-0.128 0-0.32-0.128-0.32-0.128-0.064-0.32 0-0.32 0.128l-0.128 0.256c0 0 0 0 0 0.064v0c-0.32 0-0.832 0.192-1.216 0.384s-0.384 0.384 0.064 0.384c0.384 0 0.576 0 0.896 0l0.064 0.384c0.064 0 0.192-0.128 0.32-0.32 0.192 0.064 0.448 0.064 0.64 0.128l-0.064 0.064-0.448 1.152-0.064 0.128c-0.256 0.064-0.576 0.064-0.704 0.192-0.192 0.192-0.128 0.32 0.128 0.32 0.192 0 0.32 0.064 0.448 0.064 0 0.192 0.064 0.32 0.192 0.384s0.32 0 0.448-0.128c0.128 0.064 0.192 0.192 0.384 0.256 0.256 0.192 0.384 0.128 0.32-0.128 0-0.192-0.256-0.384-0.384-0.64l0.064-0.128 0.448-1.152 0.064-0.064c0.192 0.128 0.384 0.192 0.512 0.32-0.064 0.192-0.064 0.384 0 0.448l0.32-0.256c0.256 0.192 0.384 0.384 0.64 0.64 0.32 0.32 0.448 0.192 0.32-0.256-0.192-0.32-0.448-0.896-0.64-1.088v0z"></path>
<path class="path3" d="M27.584 14.656c0-0.064 0-0.064 0 0l0.192-0.256c0.064-0.128 0.064-0.32-0.064-0.384s-0.32-0.064-0.384 0.064l-0.064 0.128c-0.128-0.128-0.256-0.256-0.384-0.384l0.512-0.768 0.192-0.256c0.064-0.128 0.192-0.32 0.256-0.512 0.064-0.256 0.064-0.448-0.064-0.576v0c-0.192-0.128-0.448 0.064-0.64 0.256-0.128 0.128-0.192 0.256-0.256 0.32l-0.448 0.512-0.32 0.512c-0.128-0.064-0.32-0.128-0.512-0.192v0l0.064-0.128c0.064-0.128 0.064-0.32-0.064-0.384s-0.32-0.064-0.384 0.064l-0.128 0.192c0 0 0 0 0 0.064v0c-0.128-0.064-0.384 0-0.64 0-0.192 0-0.448 0.064-0.64 0.128-0.256 0.064-0.32 0.192-0.32 0.256s0.128 0.128 0.32 0.128c0.256 0.064 0.384 0.064 0.576 0.128 0.128 0 0.192 0.064 0.32 0.064v0.384c0 0 0.064 0 0.192-0.064 0.064-0.064 0.128-0.128 0.192-0.192 0.064 0 0.064 0.064 0.128 0.064 0.192 0.064 0.32 0.128 0.448 0.192l-0.064 0.064-0.704 1.024-0.064 0.128c-0.256 0.064-0.576-0.064-0.768 0.064-0.256 0.128-0.192 0.256 0.064 0.32 0.192 0.064 0.32 0.064 0.448 0.128-0.064 0.192 0 0.384 0.128 0.448s0.32 0.064 0.448-0.064c0.064 0.064 0.192 0.192 0.32 0.32 0.192 0.192 0.32 0.192 0.384-0.064 0-0.192-0.192-0.448-0.256-0.704l0.064-0.128 0.704-1.024 0.064-0.064c0.128 0.128 0.32 0.256 0.448 0.448-0.064 0.192-0.128 0.384-0.064 0.448l0.384-0.192c0.256 0.256 0.32 0.448 0.512 0.768 0.256 0.32 0.384 0.256 0.384-0.192-0.192-0.32-0.32-0.896-0.512-1.088v0z"></path>
<path class="path4" d="M21.76 14.144c-0.064-0.128-0.256-0.256-0.384-0.192l-13.184 3.136c-0.192 0.064-0.32 0.256-0.256 0.448s0.192 0.256 0.32 0.256h0.064l13.12-3.136c0.192-0.064 0.32-0.256 0.256-0.448 0.064-0.064 0.064-0.064 0.064-0.064z"></path>
<path class="path5" d="M17.216 6.72l-12.544 5.12c-0.192 0.064-0.256 0.256-0.192 0.448 0.064 0.128 0.192 0.192 0.32 0.192 0.064 0 0.064 0 0.128 0l12.544-5.12c0.192-0.064 0.256-0.256 0.192-0.448s-0.256-0.256-0.448-0.192z"></path>
</symbol>
<symbol id="partners" viewBox="0 0 35 32">
<path class="path1" d="M30.338 19.077c-0.185 0-0.308-0.062-0.431-0.185-0.246-0.246-0.246-0.615 0-0.862l2.154-2.154c3.569-3.508 1.6-8.246-1.169-11.2-0.985-1.046-2.092-1.908-3.138-2.523-0.985-0.554-5.662-2.154-8.738 0.862l-6.462 6.462c-0.308 0.308-0.246 0.492-0.062 0.677 0.677 0.677 2.831 0.985 4.123-0.308l1.662-1.6c1.415-1.231 2.892-0.8 4.308-0.369 1.662 0.492 3.2 0.985 4.985-0.492 0.246-0.185 0.677-0.185 0.862 0.123 0.185 0.246 0.185 0.677-0.123 0.862-2.338 1.846-4.431 1.169-6.092 0.677-1.477-0.431-2.338-0.677-3.138 0.062l-1.6 1.6c-1.785 1.785-4.738 1.415-5.846 0.308-0.677-0.677-0.677-1.662 0.062-2.4l6.462-6.523c3.323-3.2 8.369-2.031 10.215-1.046 1.169 0.677 2.4 1.6 3.446 2.769 3.385 3.631 4.985 8.985 1.108 12.862l-2.154 2.215c-0.123 0.123-0.246 0.185-0.431 0.185z"></path>
<path class="path2" d="M4.985 18.031c-0.185 0-0.308-0.062-0.431-0.185l-2.154-2.154c-4-3.938-2.462-9.169 0.677-12.369 3.323-3.385 8.8-4.8 12.738-0.985l1.477 1.477c0.246 0.246 0.246 0.615 0 0.862s-0.615 0.246-0.862 0l-1.477-1.477c-3.508-3.385-8.123-1.908-10.954 0.985-2.769 2.769-4.123 7.262-0.738 10.646l2.154 2.154c0.246 0.246 0.246 0.615 0 0.862-0.123 0.123-0.308 0.185-0.431 0.185z"></path>
<path class="path3" d="M29.046 23.323c-0.615 0-1.354-0.246-1.969-0.923l-3.938-4.062c-0.246-0.246-0.246-0.615 0-0.862s0.615-0.246 0.862 0l3.938 4.062c0.923 0.985 1.723 0.431 1.969 0.185 0.615-0.554 0.8-1.6 0.185-2.277l-8.431-8.8c-0.246-0.246-0.246-0.615 0-0.862s0.615-0.246 0.862 0l8.369 8.8c1.169 1.231 0.8 3.015-0.185 4-0.369 0.431-0.985 0.738-1.662 0.738z"></path>
<path class="path4" d="M25.846 26.277c-0.677 0-1.292-0.246-1.846-0.8l-4.308-4.431c-0.246-0.246-0.246-0.615 0-0.862s0.615-0.246 0.862 0l4.308 4.431c0.615 0.677 1.6 0.431 2.215-0.123 0.246-0.246 0.923-1.108-0.062-2.154l-4.246-4.369c-0.246-0.246-0.246-0.615 0-0.862s0.615-0.246 0.862 0l4.246 4.369c1.354 1.415 0.985 2.954 0.062 3.877-0.554 0.615-1.292 0.923-2.092 0.923z"></path>
<path class="path5" d="M22.4 28.923c-0.677 0-1.292-0.246-1.846-0.8l-2.154-2.154c-0.246-0.246-0.246-0.615 0-0.862s0.615-0.246 0.862 0l2.154 2.154c0.615 0.615 1.6 0.431 2.154-0.123 0.246-0.246 0.923-1.046-0.123-2.092-0.246-0.246-0.246-0.615 0-0.862s0.615-0.246 0.862 0c1.354 1.415 0.985 2.954 0.062 3.815-0.431 0.615-1.231 0.923-1.969 0.923z"></path>
<path class="path6" d="M16 32c-0.677 0-1.354-0.246-1.846-0.738l-0.246-0.246c-0.492-0.492-0.738-1.169-0.738-1.846 0-0.062 0-0.123 0-0.185-0.8 0.185-1.723-0.062-2.4-0.738l-0.246-0.246c-0.492-0.492-0.738-1.169-0.738-1.846 0-0.062 0-0.123 0-0.185-0.862 0.185-1.785-0.062-2.462-0.677l-0.246-0.246c-0.492-0.492-0.738-1.169-0.738-1.846 0-0.123 0-0.246 0-0.308-0.123 0-0.308 0.062-0.431 0.062v0c-0.677 0-1.354-0.246-1.846-0.738l-0.246-0.246c-0.492-0.492-0.738-1.169-0.738-1.846s0.246-1.354 0.738-1.846l3.015-3.015c0.492-0.492 1.169-0.738 1.846-0.738v0c0.677 0 1.354 0.246 1.846 0.738l0.246 0.246c0.431 0.431 0.677 0.923 0.738 1.477l0.369-0.369c1.046-1.046 2.708-1.046 3.692 0l0.246 0.246c0.492 0.492 0.738 1.169 0.738 1.846 0 0.615-0.185 1.169-0.554 1.6 0.554 0.062 1.108 0.308 1.477 0.738l0.246 0.246c0.492 0.492 0.738 1.169 0.738 1.846 0 0.492-0.123 0.985-0.431 1.415 0.554 0.062 1.108 0.308 1.538 0.738l0.246 0.246c1.046 1.046 1.046 2.708 0 3.692l-1.969 1.969c-0.492 0.554-1.169 0.8-1.846 0.8zM17.785 25.723c-0.369 0-0.738 0.123-0.985 0.431l-2.031 1.969c-0.246 0.246-0.431 0.615-0.431 0.985s0.123 0.738 0.431 0.985l0.246 0.246c0.554 0.554 1.415 0.554 1.969 0l2.031-2.031c0.554-0.554 0.554-1.415 0-1.969l-0.246-0.246c-0.246-0.185-0.615-0.369-0.985-0.369v0zM15.692 21.477c-0.369 0-0.738 0.123-0.985 0.431l-3.262 3.262c-0.246 0.246-0.431 0.615-0.431 0.985s0.123 0.738 0.431 0.985l0.246 0.246c0.554 0.554 1.415 0.554 1.969 0l3.262-3.262c0.246-0.246 0.431-0.615 0.431-0.985s-0.123-0.738-0.431-0.985l-0.246-0.246c-0.308-0.308-0.677-0.431-0.985-0.431zM13.723 17.046c-0.369 0-0.738 0.123-0.985 0.431l-4.738 4.738c-0.246 0.246-0.431 0.615-0.431 0.985s0.123 0.738 0.431 0.985l0.246 0.246c0.554 0.554 1.415 0.554 1.969 0l4.738-4.738c0.246-0.246 0.431-0.615 0.431-0.985s-0.123-0.738-0.431-0.985l-0.246-0.246c-0.246-0.308-0.615-0.431-0.985-0.431zM8.677 15.692c-0.369 0-0.738 0.123-0.985 0.431l-2.954 2.954c-0.308 0.246-0.431 0.615-0.431 0.985s0.123 0.738 0.431 0.985l0.185 0.246c0.246 0.246 0.615 0.431 0.985 0.431v0c0.369 0 0.738-0.123 0.985-0.431l3.015-3.015c0.246-0.246 0.431-0.615 0.431-0.985s-0.123-0.738-0.431-0.985l-0.246-0.246c-0.246-0.246-0.615-0.369-0.985-0.369v0z"></path>
</symbol>
<symbol id="searches" viewBox="0 0 41 32">
<path class="path1" d="M30.272 22.656c-0.448 0.128-0.96 0.192-1.472 0.192-0.064 0-0.128 0.064-0.128 0.064-0.32 0.576-0.64 1.088-1.024 1.6-1.216-0.512-2.496-0.896-3.712-1.28 0.128-0.32 0.256-0.64 0.384-0.96 0-0.064 0-0.192-0.064-0.192-0.192-0.064-0.384-0.128-0.512-0.256-0.064 0-0.064 0-0.128 0s-0.064 0.064-0.064 0.064c-0.064 0.192-0.256 0.448-0.384 0.64-0.064 0.128 0.192 0.32 0.064 0.448-2.176-0.512-4.48-0.768-6.4-0.832v-4.864h1.664c0.064 0 0.128-0.32 0.128-0.384s0.064-0.256 0-0.32-0.064-0.256-0.128-0.384c0-0.064-0.064-0.128-0.064-0.192s-0.064-0.064-0.128-0.064h-1.408v-5.312c0 0 0.832 0 1.344-0.064 0.064 0-0.064-0.064-0.064-0.128 0-0.128-0.064-0.192-0.064-0.32s-0.064-0.192 0-0.256c0-0.064 0-0.128-0.064-0.128-0.064-0.064 0.256-0.064 0.192-0.064-0.576 0.064-0.768 0.064-1.408 0.064v-8.32h-0.256c1.792 1.024 3.136 2.368 4.288 3.776 0 0.064 0 0.064 0 0.064 0.064 0 0.064 0 0.064-0.064 0.128 0.064 0.192 0 0.32-0.064 0.064-0.064 0.128-0.128 0.192-0.192s0.064-0.128 0-0.256c-0.96-1.088-1.984-2.112-3.136-2.944 1.792 0.256 3.456 0.896 5.056 1.792 0.064 0 0.128 0 0.128 0 0.448-0.192 0.896-0.384 1.344-0.576 0.064 0 0.128-0.064 0.128-0.128s0-0.128-0.064-0.128c-2.624-1.728-5.696-2.688-8.896-2.688-4.288 0-8.32 1.664-11.328 4.672-6.208 6.208-6.208 16.384 0 22.656 3.008 3.008 7.040 4.672 11.328 4.672s8.32-1.664 11.328-4.672c1.28-1.28 2.368-2.816 3.136-4.48 0-0.064 0-0.128 0-0.192-0.064 0-0.128-0.064-0.192 0zM16.832 23.168c1.92 0.064 3.968 0.448 6.016 0.896-1.408 2.688-3.968 4.8-6.72 6.72h0.704c0 0 0-7.616 0-7.616zM26.24 26.24c-2.176 2.176-4.864 3.584-7.872 4.032 2.176-1.6 3.968-3.712 5.248-6.144 1.216 0.32 2.368 0.704 3.52 1.152-0.32 0.32-0.64 0.64-0.896 0.96zM15.552 10.752v5.312h-8.32c0.064-1.92 0.512-4.416 1.152-6.016 2.496 0.64 5.248 0.704 7.168 0.704zM7.872 8.704c-1.152-0.32-2.368-0.768-3.52-1.28 0.448-0.576 0.896-1.152 1.408-1.664 2.112-2.112 4.736-3.456 7.616-4.032-2.368 1.856-4.288 4.224-5.504 6.976zM15.552 17.344v4.864c-1.92 0.064-4.352 0.704-6.72 1.28-0.896-1.92-1.472-3.648-1.536-6.208h8.256v0.064zM8.256 24.192c1.216 2.368 3.008 4.48 5.12 6.080-2.88-0.512-5.568-1.92-7.616-4.032-0.32-0.32-0.576-0.64-0.832-0.96 1.088-0.448 2.24-0.832 3.328-1.088zM8.768 8.96c1.408-3.136 3.776-5.696 6.656-7.424h0.128v8.32c-1.92-0.064-4.544-0.32-6.784-0.896zM6.336 17.344c0.064 1.92 0.576 4.224 1.536 6.4-1.152 0.32-2.304 0.896-3.52 1.408-1.728-2.368-2.688-5.312-2.752-7.872h4.736v0.064zM1.536 16.064c0.064-2.56 0.896-5.44 2.24-7.552 1.216 0.576 2.496 1.088 3.712 1.472-0.704 1.856-1.152 4.16-1.152 6.080h-4.8zM15.552 23.168v7.296c-2.56-1.6-4.864-3.84-6.272-6.464 2.112-0.576 4.352-0.832 6.272-0.832zM40.64 22.464l-4.992-4.992c0.96-1.472 1.408-3.136 1.408-4.864 0-4.928-4.032-8.96-8.96-8.96s-8.96 4.032-8.96 8.96 4.032 8.96 8.96 8.96c1.728 0 3.392-0.512 4.864-1.408l4.928 4.928c0.064 0.064 0.192 0.128 0.32 0.128s0.256-0.064 0.32-0.128l1.984-1.984c0.064-0.064 0.128-0.192 0.128-0.32 0.128-0.128 0.064-0.256 0-0.32zM35.2 18.368l4.416 4.416-1.344 1.344-4.416-4.416 1.344-1.344zM36.16 12.608c0 4.416-3.584 8-8 8s-8-3.584-8-8 3.584-8 8-8 8 3.648 8 8z"></path>
</symbol>
<symbol id="money" viewBox="0 0 31 32">
<path class="path1" d="M21.723 18.892c-0.369 0-0.615-0.246-0.615-0.615v-1.908c0-0.369 0.246-0.615 0.615-0.615s0.615 0.246 0.615 0.615v1.908c0 0.308-0.246 0.615-0.615 0.615z"></path>
<path class="path2" d="M21.723 29.231c-0.369 0-0.615-0.246-0.615-0.615v-1.908c0-0.369 0.246-0.615 0.615-0.615s0.615 0.246 0.615 0.615v1.908c0 0.369-0.246 0.615-0.615 0.615z"></path>
<path class="path3" d="M21.723 32c-5.231 0-9.538-4.246-9.538-9.538 0-5.231 4.308-9.538 9.538-9.538s9.538 4.246 9.538 9.538-4.246 9.538-9.538 9.538zM21.723 14.154c-4.554 0-8.308 3.754-8.308 8.308s3.754 8.308 8.308 8.308 8.308-3.754 8.308-8.308-3.692-8.308-8.308-8.308z"></path>
<path class="path4" d="M22.092 27.015c-0.246 0-0.492 0-0.738-0.062-0.8-0.123-1.6-0.369-2.462-0.615l-0.185-0.062c-0.308-0.123-0.492-0.431-0.369-0.8 0.123-0.308 0.431-0.492 0.8-0.369l0.185 0.062c0.8 0.246 1.538 0.492 2.215 0.554 1.231 0.123 2.215-0.123 2.585-0.738 0.185-0.308 0.246-0.615 0.062-0.923-0.308-0.615-1.231-0.985-2.462-0.985 0 0 0 0-0.062 0-1.723 0-3.015-0.615-3.569-1.6-0.369-0.677-0.308-1.538 0.123-2.215 0.677-0.985 2.092-1.477 3.815-1.292 0.8 0.123 1.6 0.369 2.462 0.615l0.185 0.062c0.308 0.123 0.492 0.431 0.369 0.8-0.123 0.308-0.431 0.492-0.8 0.369l-0.185-0.062c-0.8-0.246-1.538-0.492-2.215-0.615-1.477-0.185-2.338 0.308-2.646 0.8-0.185 0.308-0.246 0.615-0.062 0.923 0.308 0.615 1.231 0.985 2.523 0.985 0 0 0 0 0.062 0 1.723 0 2.954 0.615 3.508 1.6 0.369 0.738 0.308 1.538-0.123 2.215-0.492 0.862-1.6 1.354-3.015 1.354z"></path>
<path class="path5" d="M20.615 4.738c-0.369 0-0.615-0.246-0.615-0.615v-2.892h-16.923v2.277h2.892c0.369 0 0.615 0.246 0.615 0.615s-0.246 0.615-0.615 0.615h-3.508c-0.369 0-0.615-0.246-0.615-0.615v-3.508c0-0.369 0.246-0.615 0.615-0.615h18.154c0.369 0 0.615 0.246 0.615 0.615v3.508c0 0.308-0.308 0.615-0.615 0.615z"></path>
<path class="path6" d="M24 8.246h-5.169c-0.369 0-0.615-0.246-0.615-0.615s0.246-0.615 0.615-0.615h4.554v-2.277h-16.923v2.892c0 0.369-0.246 0.615-0.615 0.615s-0.615-0.246-0.615-0.615v-3.508c0-0.369 0.246-0.615 0.615-0.615h18.154c0.369 0 0.615 0.246 0.615 0.615v3.508c0 0.308-0.246 0.615-0.615 0.615z"></path>
<path class="path7" d="M18.769 11.754c-0.369 0-0.615-0.246-0.615-0.615v-2.892h-16.923v2.892c0 0.369-0.246 0.615-0.615 0.615s-0.615-0.246-0.615-0.615v-3.508c0-0.369 0.246-0.615 0.615-0.615h18.154c0.369 0 0.615 0.246 0.615 0.615v3.508c0 0.308-0.308 0.615-0.615 0.615z"></path>
<path class="path8" d="M0.615 15.262c-0.369 0-0.615-0.246-0.615-0.615v-3.508c0-0.369 0.246-0.615 0.615-0.615h18.154c0.369 0 0.615 0.246 0.615 0.615v2.585c0 0.369-0.246 0.615-0.615 0.615s-0.615-0.246-0.615-0.615v-1.969h-16.923v2.892c0 0.308-0.246 0.615-0.615 0.615z"></path>
<path class="path9" d="M0.615 18.769c-0.369 0-0.615-0.246-0.615-0.615v-3.508c0-0.369 0.246-0.615 0.615-0.615h16.677c0.369 0 0.615 0.246 0.615 0.615s-0.246 0.615-0.615 0.615h-16.062v2.892c0 0.308-0.246 0.615-0.615 0.615z"></path>
<path class="path10" d="M0.615 22.277c-0.369 0-0.615-0.246-0.615-0.615v-3.508c0-0.369 0.246-0.615 0.615-0.615h13.231c0.369 0 0.615 0.246 0.615 0.615s-0.246 0.615-0.615 0.615h-12.615v2.892c0 0.308-0.246 0.615-0.615 0.615z"></path>
<path class="path11" d="M0.615 25.785c-0.369 0-0.615-0.246-0.615-0.615v-3.508c0-0.369 0.246-0.615 0.615-0.615h12.062c0.369 0 0.615 0.246 0.615 0.615s-0.246 0.615-0.615 0.615h-11.446v2.892c0 0.308-0.246 0.615-0.615 0.615z"></path>
<path class="path12" d="M15.138 29.292h-14.523c-0.369 0-0.615-0.246-0.615-0.615v-3.508c0-0.369 0.246-0.615 0.615-0.615h12.492c0.369 0 0.615 0.246 0.615 0.615s-0.246 0.615-0.615 0.615h-11.877v2.277h13.908c0.369 0 0.615 0.246 0.615 0.615s-0.308 0.615-0.615 0.615z"></path>
</symbol>
<symbol id="linkedin" viewBox="0 0 32 32">
<path class="path1" d="M16 32c-8.8 0-16-7.2-16-16s7.2-16 16-16c8.8 0 16 7.2 16 16s-7.2 16-16 16zM16 1.231c-8.123 0-14.769 6.646-14.769 14.769s6.646 14.769 14.769 14.769c8.123 0 14.769-6.646 14.769-14.769s-6.646-14.769-14.769-14.769z"></path>
<path class="path2" d="M11.938 21.231c0 0.123-0.062 0.185-0.185 0.185h-2.831c-0.123 0-0.185-0.062-0.185-0.185v-9.231c0-0.123 0.062-0.185 0.185-0.185h2.831c0.123 0 0.185 0.062 0.185 0.185v9.231z"></path>
<path class="path3" d="M10.338 10.831c-0.862 0-1.6-0.738-1.6-1.6s0.738-1.6 1.6-1.6c0.862 0 1.6 0.738 1.6 1.6 0 0.923-0.677 1.6-1.6 1.6z"></path>
<path class="path4" d="M23.077 14.769v6.523c0 0.123-0.062 0.185-0.185 0.185h-2.831c-0.123 0-0.185-0.062-0.185-0.185v-5.231c0-0.985-0.062-1.846-1.477-1.846-0.985 0-1.477 0.8-1.538 1.415v5.662c0 0.123-0.062 0.185-0.185 0.185h-2.831c-0.123 0-0.185-0.062-0.185-0.185v-9.231c0-0.123 0.062-0.185 0.185-0.185h2.831c0.123 0 0.185 0.062 0.185 0.185v0.862c0.492-0.554 1.477-1.231 2.831-1.231 2.277 0 3.138 1.662 3.323 2.4 0.062 0.062 0.062 0 0.062 0.677z"></path>
</symbol>
<symbol id="facebook" viewBox="0 0 32 32">
<path class="path1" d="M16 32c-8.8 0-16-7.2-16-16s7.2-16 16-16c8.8 0 16 7.2 16 16s-7.2 16-16 16zM16 1.231c-8.123 0-14.769 6.646-14.769 14.769s6.646 14.769 14.769 14.769c8.123 0 14.769-6.646 14.769-14.769s-6.646-14.769-14.769-14.769z"></path>
<path class="path2" d="M20.062 15.754h-2.585v9.292h-3.877v-9.292h-1.846v-3.262h1.846v-2.092c0-1.538 0.738-3.877 3.877-3.877h2.831v3.2h-2.092c-0.308 0-0.8 0.185-0.8 0.862v1.908h2.954l-0.308 3.262z"></path>
</symbol>
<symbol id="email" viewBox="0 0 45 32">
<path class="path1" d="M11.98 20.503c-0.080 0-0.241 0-0.322-0.080l-11.176-4.503c-0.322-0.161-0.482-0.402-0.482-0.804s0.241-0.643 0.563-0.724l42.693-14.312c0.402-0.161 0.804 0.080 0.965 0.402 0.161 0.402 0 0.804-0.322 1.045l-31.518 18.814c-0.080 0.080-0.241 0.161-0.402 0.161zM3.136 15.276l8.764 3.538 24.764-14.874-33.528 11.337z"></path>
<path class="path2" d="M29.508 28.462c-0.080 0-0.241 0-0.322-0.080l-14.151-6.271c-0.241-0.080-0.482-0.402-0.482-0.643 0-0.322 0.080-0.563 0.322-0.724l28.141-20.583c0.322-0.241 0.724-0.241 0.965 0 0.322 0.241 0.402 0.643 0.241 1.045l-13.99 26.774c-0.161 0.322-0.402 0.482-0.724 0.482zM16.965 21.226l12.141 5.387 12.060-23.075-24.201 17.688z"></path>
<path class="path3" d="M14.312 32c-0.080 0-0.241 0-0.322-0.080-0.322-0.161-0.563-0.482-0.482-0.804l1.045-9.809c0-0.241 0.161-0.482 0.402-0.643s0.482-0.161 0.724 0l4.905 2.171c0.241 0.080 0.402 0.322 0.482 0.563s0 0.482-0.161 0.724l-5.95 7.638c-0.161 0.161-0.402 0.241-0.643 0.241zM16.080 22.593l-0.643 5.95 3.618-4.583-2.975-1.367z"></path>
<path class="path4" d="M14.312 32c-0.322 0-0.563-0.161-0.724-0.482l-6.111-13.025c-0.161-0.322-0.080-0.643 0.161-0.884s0.563-0.322 0.884-0.161l3.779 1.528c0.241 0.080 0.402 0.322 0.482 0.563l2.332 11.497c0.080 0.402-0.161 0.804-0.563 0.884-0.080 0.080-0.161 0.080-0.241 0.080zM9.809 19.698l2.412 5.146-0.884-4.583-1.528-0.563z"></path>
</symbol>
<symbol id="production" viewBox="0 0 38 32">
<path class="path1" d="M32.576 6.528h-5.184v-2.304c0-2.368-1.92-4.224-4.224-4.224h-8.704c-2.304 0-4.224 1.92-4.224 4.224v2.304h-5.184c-2.752 0-5.056 2.24-5.056 5.056v15.36c0 2.816 2.24 5.056 5.056 5.056h27.52c2.752 0 5.056-2.24 5.056-5.056v-15.36c-0.064-2.752-2.304-5.056-5.056-5.056zM13.184 4.224c0-0.704 0.576-1.28 1.28-1.28h8.64c0.704 0 1.28 0.576 1.28 1.28v2.304h-11.2v-2.304zM12.736 24.32c0 0.32-0.064 0.576-0.256 0.832-0.128 0.256-0.384 0.448-0.64 0.576-1.152 0.768-2.624 1.024-3.968 0.704-0.192-0.064-0.448-0.128-0.576-0.256-0.384-0.32-0.448-0.768-0.448-1.28 0-0.896 0.128-1.792 0.64-2.496 1.024-1.408 2.496-0.896 3.84-0.32 0.448 0.192 0.896 0.512 1.152 0.96 0.256 0.384 0.256 0.832 0.256 1.28zM11.712 15.168c-0.64 0.448-1.408 0.704-2.24 0.704-0.448 0-0.896-0.064-1.152-0.448s-0.192-0.896 0-1.344c0.192-0.512 0.448-1.024 0.768-1.408 0-0.32 1.024-0.704 1.216-0.768 0.512-0.128 1.088 0.064 1.6 0.192 0.256 0.064 0.576 0.128 0.768 0.32s0.192 0.512 0.128 0.768c0 0.768-0.512 1.472-1.088 1.984zM14.144 19.904c-0.32-0.384-0.448-0.96-0.32-1.408 0.128-0.512 0.384-0.896 0.768-1.28 0.896-0.96 2.176-1.6 3.52-1.792 1.28-0.192 1.984 0.448 2.496 1.6 0.256 0.576 0.32 1.216 0.064 1.792-0.192 0.512-0.64 0.896-1.088 1.216-0.64 0.448-1.408 0.832-2.24 0.832-0.768 0.064-1.536-0.192-2.304-0.448-0.32-0.128-0.64-0.256-0.896-0.512zM20.928 27.52c-0.192 0.32-0.512 0.512-0.832 0.704-0.256 0.128-0.576 0.32-0.832 0.384-0.448 0.064-0.832 0-1.28-0.128-0.32-0.128-0.64-0.256-0.832-0.512-0.448-0.512-0.256-1.28 0-1.92 0.128-0.384 0.384-1.152 0.768-1.344 0.32-0.192 0.512 0 0.832 0 0.896 0.064 1.664 0.064 2.24 0.896 0.32 0.576 0.32 1.344-0.064 1.92zM30.144 22.464c-0.064 0.704-0.256 1.344-0.64 1.92-0.384 0.512-1.088 0.896-1.728 0.832-0.384-0.064-0.768-0.192-1.152-0.384-0.64-0.32-1.344-0.64-1.792-1.216-0.32-0.32-0.512-0.768-0.96-0.96-0.256-0.128-0.576-0.192-0.576-0.512 0-0.064 0.064-0.192 0.064-0.256 0.384-0.64 0.96-1.152 1.6-1.6 0.832-0.64 1.216-1.216 2.24-0.832 0.896 0.384 1.792 0.64 2.432 1.344 0.192 0.256 0.448 0.512 0.512 0.832 0.064 0.256 0 0.512 0 0.832zM30.144 14.080c-0.32 0.448-0.896 0.768-1.472 0.768s-1.152-0.192-1.6-0.576c-0.192-0.192-0.384-0.448-0.384-0.768 0-0.192 0.128-0.384 0.256-0.512 0.256-0.32 0.576-0.576 0.896-0.832 0.448-0.32 1.408-0.512 1.92-0.256 0.32 0.192 0.576 0.512 0.704 0.896 0.064 0.128 0.064 0.32 0.064 0.512-0.128 0.32-0.256 0.576-0.384 0.768z"></path>
</symbol>
<symbol id="bi" viewBox="0 0 45 32">
<path class="path1" d="M45.312 32h-45.312v-32h2.112v29.888h43.2z"></path>
<path class="path2" d="M7.808 21.632c0 0.99-0.802 1.792-1.792 1.792s-1.792-0.802-1.792-1.792c0-0.99 0.802-1.792 1.792-1.792s1.792 0.802 1.792 1.792z"></path>
<path class="path3" d="M16.256 12.288c0 0.99-0.802 1.792-1.792 1.792s-1.792-0.802-1.792-1.792c0-0.99 0.802-1.792 1.792-1.792s1.792 0.802 1.792 1.792z"></path>
<path class="path4" d="M25.472 17.664c0 0.99-0.802 1.792-1.792 1.792s-1.792-0.802-1.792-1.792c0-0.99 0.802-1.792 1.792-1.792s1.792 0.802 1.792 1.792z"></path>
<path class="path5" d="M32.704 11.2c0 0.99-0.802 1.792-1.792 1.792s-1.792-0.802-1.792-1.792c0-0.99 0.802-1.792 1.792-1.792s1.792 0.802 1.792 1.792z"></path>
<path class="path6" d="M43.392 9.344c0 0.99-0.802 1.792-1.792 1.792s-1.792-0.802-1.792-1.792c0-0.99 0.802-1.792 1.792-1.792s1.792 0.802 1.792 1.792z"></path>
<path class="path7" d="M6.464 21.952l-0.832-0.704 8.768-9.6 9.216 5.312 7.104-6.272 10.816-1.856 0.128 1.024-10.496 1.792-7.424 6.656-9.152-5.312z"></path>
<path class="path8" d="M13.12 17.664h3.2v10.752h-3.2v-10.752z"></path>
<path class="path9" d="M4.48 25.344h3.2v3.072h-3.2v-3.072z"></path>
<path class="path10" d="M22.208 22.080h3.2v6.336h-3.2v-6.336z"></path>
<path class="path11" d="M29.568 17.984h3.2v10.432h-3.2v-10.432z"></path>
<path class="path12" d="M38.912 15.808h3.2v12.608h-3.2v-12.608z"></path>
</symbol>
<symbol id="it" viewBox="0 0 48 32">
<path class="path1" d="M47.936 30.336l-5.568-6.784v-20.928c0-1.472-1.152-2.624-2.624-2.624h-31.296c-1.472 0-2.624 1.152-2.624 2.624v20.928l-5.568 6.784c-0.512 0.64-0.128 1.664 0.704 1.664h46.336c0.768 0 1.152-1.024 0.64-1.664zM8.448 2.176h31.296c0.256 0 0.448 0.192 0.448 0.448v20.224h-32.192v-20.224c0-0.256 0.192-0.448 0.448-0.448zM30.976 29.952h-13.76v-2.496h13.76v2.496z"></path>
<path class="path2" d="M35.712 14.208l-1.408-0.256c-0.128 0-0.192-0.064-0.192-0.192-0.064-0.256-0.192-0.448-0.32-0.704-0.064-0.064-0.064-0.192 0-0.32l0.832-1.152c0.064-0.128 0.064-0.256-0.064-0.384l-1.28-1.28c-0.128-0.128-0.256-0.128-0.384-0.064l-1.152 0.832c-0.064 0.064-0.192 0.064-0.32 0-0.256-0.128-0.448-0.192-0.704-0.32-0.128-0.064-0.192-0.128-0.192-0.192l-0.256-1.408c0-0.128-0.128-0.256-0.256-0.256h-1.792c-0.128 0-0.256 0.128-0.256 0.256l-0.32 1.472c0 0.128-0.064 0.192-0.192 0.192-0.256 0.064-0.512 0.192-0.704 0.32-0.064 0.064-0.192 0.064-0.32 0l-1.152-0.832c-0.128-0.064-0.256-0.064-0.384 0.064l-1.28 1.28c-0.128 0.128-0.128 0.256-0.064 0.384l0.832 1.152c0.064 0.064 0.064 0.192 0 0.32-0.128 0.192-0.192 0.448-0.32 0.704-0.064 0.128-0.128 0.192-0.192 0.192l-1.408 0.256c-0.128 0-0.256 0.128-0.256 0.256v1.792c0 0.128 0.128 0.256 0.256 0.256l1.408 0.256c0.128 0 0.192 0.064 0.192 0.192 0.064 0.256 0.192 0.512 0.32 0.768 0.064 0.064 0.064 0.192 0 0.32l-0.832 1.152c-0.064 0.128-0.064 0.256 0.064 0.384l1.28 1.28c0.128 0.128 0.256 0.128 0.384 0.064l1.152-0.768c0.064-0.064 0.192-0.064 0.32 0 0.256 0.128 0.448 0.192 0.704 0.32 0.128 0.064 0.192 0.128 0.192 0.192l0.256 1.408c0 0.128 0.128 0.256 0.256 0.256h1.792c0.128 0 0.256-0.128 0.256-0.256l0.256-1.408c0-0.128 0.064-0.192 0.192-0.192 0.256-0.064 0.512-0.192 0.704-0.32 0.064-0.064 0.192-0.064 0.32 0l1.152 0.768c0.128 0.064 0.256 0.064 0.384-0.064l1.28-1.28c0.128-0.128 0.128-0.256 0.064-0.384l-0.832-1.152c-0.064-0.064-0.064-0.192 0-0.32 0.128-0.256 0.192-0.512 0.32-0.768 0.064-0.128 0.128-0.192 0.192-0.192l1.408-0.256c0.128 0 0.256-0.128 0.256-0.256v-1.792c0.064-0.128 0-0.256-0.192-0.32zM29.12 18.688c-1.792 0-3.264-1.472-3.264-3.264s1.472-3.264 3.264-3.264 3.264 1.472 3.264 3.264-1.472 3.264-3.264 3.264z"></path>
<path class="path3" d="M22.144 8.96l-0.96-0.192c-0.064 0-0.128-0.064-0.128-0.128-0.064-0.192-0.128-0.32-0.192-0.448-0.064-0.064 0-0.128 0-0.192l0.576-0.832c0.064-0.064 0.064-0.192 0-0.256l-0.448-0.448-0.512-0.448c-0.064-0.064-0.192-0.064-0.256 0l-0.832 0.576c-0.064 0.064-0.128 0.064-0.192 0-0.128-0.064-0.32-0.128-0.512-0.192-0.064 0-0.128-0.064-0.128-0.128l-0.192-0.96c0-0.064-0.128-0.192-0.192-0.192h-1.28c-0.064 0-0.192 0.064-0.192 0.192l-0.192 0.96c0 0.064-0.064 0.128-0.128 0.128-0.192 0.064-0.32 0.128-0.512 0.192-0.064 0.064-0.128 0-0.192 0l-0.832-0.576c-0.064-0.064-0.192-0.064-0.256 0l-0.896 0.896c-0.064 0.064-0.064 0.192 0 0.256l0.576 0.832c0.064 0.064 0.064 0.128 0 0.192-0.064 0.128-0.128 0.32-0.192 0.448 0 0.064-0.064 0.128-0.128 0.128l-0.896 0.192c-0.064 0-0.192 0.128-0.192 0.192v1.28c0 0.064 0.064 0.192 0.192 0.192l0.96 0.192c0.064 0 0.128 0.064 0.128 0.128 0.064 0.192 0.128 0.32 0.192 0.512 0.064 0.064 0 0.128 0 0.192l-0.576 0.832c-0.064 0.064-0.064 0.192 0 0.256l0.896 0.896c0.064 0.064 0.192 0.064 0.256 0l0.832-0.576c0.064-0.064 0.128-0.064 0.192 0 0.128 0.064 0.32 0.128 0.512 0.192 0.064 0 0.128 0.064 0.128 0.128l0.192 0.96c0 0.064 0.128 0.192 0.192 0.192h1.28c0.064 0 0.192-0.064 0.192-0.192l0.192-0.96c0-0.064 0.064-0.128 0.128-0.128 0.192-0.064 0.32-0.128 0.512-0.192 0.064-0.064 0.128 0 0.192 0l0.832 0.576c0.064 0.064 0.192 0.064 0.256 0l0.896-0.896c0.064-0.064 0.064-0.192 0-0.256l-0.576-0.832c-0.064-0.064-0.064-0.128 0-0.192 0.064-0.192 0.128-0.32 0.192-0.512 0-0.064 0.064-0.128 0.128-0.128l0.96-0.192c0.064 0 0.192-0.128 0.192-0.192v-1.28c-0.064-0.064-0.128-0.192-0.192-0.192zM17.6 12.032c-1.216 0-2.24-1.024-2.24-2.24s1.024-2.24 2.24-2.24 2.24 1.024 2.24 2.24-1.024 2.24-2.24 2.24z"></path>
</symbol>
<symbol id="qa" viewBox="0 0 36 32">
<path class="path1" d="M19.392 29.824h-19.392v-29.824h28.864v21.312h-1.984v-19.392h-24.96v25.984h17.472z"></path>
<path class="path2" d="M6.272 5.824h16.256v1.92h-16.256v-1.92z"></path>
<path class="path3" d="M6.272 10.048h16.256v1.92h-16.256v-1.92z"></path>
<path class="path4" d="M6.272 14.272h16.256v1.92h-16.256v-1.92z"></path>
<path class="path5" d="M6.272 18.56h16.256v1.92h-16.256v-1.92z"></path>
<path class="path6" d="M6.272 22.784h8.768v1.92h-8.768v-1.92z"></path>
<path class="path7" d="M20.224 23.872l3.072 8.128 13.056-11.648-11.776 5.824z"></path>
</symbol>
<symbol id="rd" viewBox="0 0 33 32">
<path class="path1" d="M18.222 28.571c-7.873 0-14.286-6.413-14.286-14.286s6.413-14.286 14.286-14.286 14.286 6.413 14.286 14.286c0.063 7.873-6.349 14.286-14.286 14.286zM18.222 1.714c-6.921 0-12.635 5.651-12.635 12.635s5.651 12.635 12.635 12.635 12.635-5.651 12.635-12.635-5.651-12.635-12.635-12.635z"></path>
<path class="path2" d="M31.683 14.286c0-7.429-6.032-13.46-13.46-13.46s-13.397 6.032-13.397 13.46c0 1.905 0.381 3.683 1.079 5.333 0.317-0.064 0.635-0.19 0.825-0.381 0.317-0.317 0.571-0.762 0.381-1.206-0.127-0.254-0.317-0.444-0.444-0.698-0.381-0.762 0.381-1.587 1.079-2.032 0.762-0.444 1.651-0.825 1.905-1.651s-0.317-1.651-0.317-2.54c0-1.143 1.016-2.032 1.841-2.857 0.254-0.254 0.571-0.635 0.381-0.952-0.063-0.19-0.254-0.254-0.381-0.381-0.444-0.381-0.508-1.016-0.317-1.587 0.444-1.206 1.778-1.778 3.048-2.159 1.079-0.381 2.222-0.698 3.302-1.079 0.571-0.19 1.206-0.317 1.714-0.063s0.825 0.889 0.952 1.46c0.127 0.571 0.127 1.206 0.381 1.714 0.317 0.698 0.889 1.143 1.46 1.587 1.333 1.016 2.603 2.032 3.936 3.048 0.064 0.063 0.19 0.127 0.317 0.19 0.508 0.127 0.825-0.508 1.206-0.762 0.444-0.317 1.079-0.19 1.524 0.127s0.698 0.825 0.889 1.333c0.317 1.016 0.381 2.159 0.064 3.175-0.825-0.127-1.651-0.508-2.222-1.143-0.19-0.254-0.381-0.508-0.698-0.571-0.571-0.127-0.952 0.508-1.143 1.079-0.825 2.349-1.143 5.016-2.667 6.984-0.952 1.27-2.349 2.222-2.73 3.746-0.064 0.127-0.064 0.317 0 0.444 0.127 0.317 0.571 0.254 0.889 0.127 1.016-0.317 1.968-0.762 2.984-0.889 0.254 0 0.571 0 0.762 0.127 0.635 0.381 0.508 1.333 0.19 2.032 0 0 0 0.064 0 0.064 4-2.349 6.667-6.667 6.667-11.619z"></path>
<path class="path3" d="M1.587 31.429l-0.952-0.952c-0.825-0.825-0.825-2.095-0.064-2.921l13.079-13.46 3.936 3.81-13.079 13.524c-0.762 0.762-2.095 0.825-2.921 0z"></path>
<path class="path4" d="M12.381 9.714l6.603-1.651v1.841l-2.603 2.476 2.857 3.238 3.81-3.238-0.762 7.365h-9.905z"></path>
</symbol>
<symbol id="icon-facebook" viewBox="0 0 32 32">
<path class="path1" d="M16 0.032c-8.832 0-15.968 7.136-15.968 15.968s7.168 15.968 15.968 15.968c8.832 0 15.968-7.168 15.968-15.968 0-8.832-7.136-15.968-15.968-15.968zM20.256 15.744h-2.688c0 4.32 0 9.632 0 9.632h-4.032c0 0 0-5.248 0-9.632h-1.888v-3.424h1.888v-2.208c0-1.568 0.736-4.032 4.032-4.032h2.976v3.296c0 0-1.792 0-2.144 0s-0.864 0.16-0.864 0.928v2.016h3.040l-0.32 3.424z"></path>
</symbol>
<symbol id="google" viewBox="0 0 32 32">
<path class="path1" d="M12.032 13.28c-0.32-2.432-2.080-4.384-3.936-4.416-1.856-0.064-3.072 1.792-2.784 4.224 0.32 2.432 2.080 4.448 3.936 4.48 1.856 0.064 3.104-1.856 2.784-4.288z"></path>
<path class="path2" d="M13.76 26.112c0-0.256-0.032-0.512-0.096-0.736-0.288-1.184-1.376-1.76-2.88-2.816-0.544-0.16-1.152-0.288-1.792-0.288-2.752-0.032-5.216 1.664-5.216 3.744 0 0.128 0 0.224 0.032 0.352 1.184 1.376 2.56 2.56 4.128 3.456 0.192 0.032 0.384 0.032 0.576 0.032 3.904 0 5.248-1.632 5.248-3.744z"></path>
<path class="path3" d="M16 0c-8.832 0-16 7.168-16 16 0 2.976 0.832 5.76 2.24 8.16 1.216-1.472 3.424-2.56 6.016-2.56 0.448 0 0.832-0.032 1.248-0.032-0.544-0.544-0.992-1.184-0.992-1.984 0-0.48 0.16-0.96 0.352-1.376-0.224 0-0.448-0.032-0.672-0.032-3.264 0-5.472-2.432-5.472-5.312 0-2.816 3.040-5.44 6.24-5.44 1.792 0 7.168 0 7.168 0l-1.6 1.504h-2.272c1.504 0.384 2.304 2.368 2.304 4.16 0 1.504-0.832 2.848-2.016 3.776-1.152 0.896-1.376 1.28-1.376 2.048 0 0.672 1.248 1.76 1.888 2.24 1.888 1.344 2.496 2.592 2.496 4.672 0 2.272-1.92 4.544-5.472 5.056 1.824 0.704 3.808 1.12 5.856 1.12 8.832 0 16-7.168 16-16 0.064-8.832-7.104-16-15.936-16zM24.48 13.952v4.48h-2.24v-4.48h-4.48v-2.24h4.48v-4.48h2.24v4.48h4.48v2.24h-4.48z"></path>
</symbol>
<symbol id="icon-linkedin" viewBox="0 0 32 32">
<path class="path1" d="M16 0.032c-8.832 0-15.968 7.136-15.968 15.968s7.136 15.968 15.968 15.968c8.832 0 15.968-7.168 15.968-15.968 0-8.832-7.136-15.968-15.968-15.968zM11.808 21.472c0 0.096-0.096 0.192-0.192 0.192h-2.944c-0.096 0-0.192-0.096-0.192-0.192v-9.6c0-0.096 0.096-0.192 0.192-0.192h2.944c0.096 0 0.192 0.096 0.192 0.192v9.6zM10.144 10.656c-0.928 0-1.664-0.736-1.664-1.664s0.736-1.664 1.664-1.664c0.928 0 1.664 0.736 1.664 1.664s-0.736 1.664-1.664 1.664zM23.36 14.688v6.752c0 0.096-0.096 0.192-0.192 0.192h-2.944c-0.096 0-0.192-0.096-0.192-0.192v-5.376c0-1.056-0.096-1.888-1.504-1.888-1.024 0-1.568 0.864-1.568 1.44v5.856c0 0.096-0.096 0.192-0.192 0.192h-2.944c-0.096 0-0.192-0.096-0.192-0.192v-9.6c0-0.096 0.096-0.192 0.192-0.192h2.944c0.096 0 0.192 0.096 0.192 0.192v0.928c0.512-0.576 1.504-1.248 2.944-1.248 2.368 0 3.232 1.728 3.456 2.528-0.032-0.032 0-0.032 0 0.608z"></path>
</symbol>
<symbol id="twitter" viewBox="0 0 32 32">
<path class="path1" d="M32 16c0 8.832-7.168 16-16 16s-16-7.168-16-16c0-8.832 7.168-16 16-16s16 7.168 16 16zM27.328 8.96c-0.832 0.384-1.728 0.608-2.656 0.736 0.96-0.576 1.696-1.472 2.048-2.56-0.896 0.544-1.888 0.928-2.944 1.12-0.832-0.896-2.048-1.472-3.392-1.472-2.56 0-4.64 2.080-4.64 4.64 0 0.352 0.032 0.704 0.128 1.056-3.872-0.192-7.296-2.048-9.6-4.864-0.416 0.672-0.64 1.472-0.64 2.336 0 1.6 0.832 3.040 2.080 3.872-0.768-0.032-1.472-0.224-2.112-0.576v0.064c0 2.24 1.6 4.128 3.744 4.576-0.384 0.096-0.8 0.16-1.216 0.16-0.288 0-0.576-0.032-0.864-0.096 0.608 1.856 2.304 3.2 4.352 3.232-1.6 1.248-3.584 1.984-5.792 1.984-0.384 0-0.736-0.032-1.12-0.064 2.048 1.312 4.512 2.080 7.136 2.080 8.544 0 13.248-7.072 13.248-13.248v-0.608c0.832-0.608 1.632-1.44 2.24-2.368z"></path>
</symbol>
</defs>
</svg>
